<?xml version="1.0" encoding="UTF-8"?><svg xmlns="http://www.w3.org/2000/svg" viewBox="0 0 500 500"><defs><style>.cls-1{fill:#fff;}</style></defs><g id="circle"><circle class="cls-1" cx="250" cy="250" r="250"/></g><g id="Ebene_1"><g id="letters"><path d="M148.35,216.95c2.38,3.8,5.97,9.82,10.73,18.03,4.77,8.21,10.23,17.32,16.4,27.34,6.16,10.02,12.61,20.38,19.37,31.09,6.76,10.71,13.36,20.53,19.83,29.44,6.46,8.92,12.41,16.37,17.89,22.38,5.47,6.01,9.89,9.31,13.27,9.92h-64.98l-63.49-108.15c4.97-5.21,10.09-10.27,15.35-15.17,5.27-4.9,10.48-9.86,15.65-14.88M124.8,144.85c-3.97.2-7.06,1.26-9.24,3.15-2.19,1.91-3.77,4.21-4.77,6.91-1,2.7-1.64,5.71-1.94,9.01-.3,3.3-.45,6.46-.45,9.46v153.81c0,3.21.19,6.46.59,9.76.4,3.3,1.19,6.31,2.38,9.01,1.19,2.7,2.98,4.91,5.37,6.61,2.38,1.7,5.57,2.56,9.54,2.56H47c4.17,0,7.45-.94,9.84-2.85,2.38-1.9,4.17-4.31,5.37-7.21,1.19-2.9,1.94-6.1,2.24-9.61.3-3.5.45-6.86.45-10.06v-151.4c0-3.2-.15-6.51-.45-9.92-.3-3.4-1.05-6.51-2.24-9.31-1.19-2.8-2.98-5.15-5.37-7.06-2.39-1.9-5.67-2.85-9.84-2.85h77.8Z"/><path d="M314.67,256.01v-81.42c0-3.2.15-6.56.45-10.06.3-3.5.99-6.71,2.08-9.61,1.09-2.9,2.83-5.31,5.22-7.21,2.39-1.9,5.67-2.85,9.84-2.85h-78.99c4.17,0,7.46,1.01,9.84,3.01,2.38,2.01,4.17,4.56,5.37,7.66,1.19,3.11,1.94,6.46,2.24,10.06.3,3.6.45,7.01.45,10.22v148.41c0,3.41-.1,6.91-.3,10.51-.2,3.6-.89,6.91-2.08,9.92-1.19,3.01-2.98,5.51-5.37,7.51-2.38,2.01-5.77,3.01-10.14,3.01h78.99c-3.98,0-7.11-.94-9.39-2.85-2.28-1.91-4.02-4.25-5.21-7.06-1.19-2.8-1.99-5.96-2.38-9.46-.4-3.5-.6-6.76-.6-9.76v-70.01Z"/><path d="M437.78,344.48c-1.19-3.1-1.89-6.46-2.08-10.06-.2-3.6-.3-7.01-.3-10.22v-148.4c0-3.2.1-6.61.3-10.22.19-3.6.89-6.96,2.08-10.06,1.19-3.1,2.98-5.66,5.37-7.66,2.39-1.99,5.67-3,9.84-3h-78.99c3.77,0,6.8.75,9.1,2.25,2.28,1.5,4.07,3.51,5.36,6.01,1.29,2.5,2.14,5.31,2.54,8.41.4,3.11.6,6.16.6,9.17v76.04h-58.98c33.04,6.24,58.45,28.96,58.98,55.06v24.52c0,3.21-.15,6.51-.45,9.92-.3,3.41-1.05,6.51-2.24,9.31-1.19,2.8-2.94,5.11-5.22,6.91-2.28,1.81-5.51,2.7-9.69,2.7h78.99c-4.17,0-7.46-1-9.84-3.01-2.38-2-4.17-4.56-5.37-7.66"/><path d="M170.87,195.08c4.37-4.63,8.19-9.92,11.48-15.87,3.28-5.95,4.92-12.23,4.92-18.83,0-4.63-1.43-8.37-4.27-11.24-2.85-2.86-6.56-4.3-11.15-4.3h65.91c-4.59,0-10.06,1.98-16.4,5.95-6.34,3.96-12.73,8.71-19.18,14.21-6.45,5.51-12.46,11.07-18.03,16.69-5.57,5.62-10,10.08-13.28,13.38"/></g></g></svg>